Coordinates
version=1
nRows=8
nColumns=40
inDegrees=yes

Units are S.I. units (second, meters, Newtons, ...)
Angles are in degrees.

endheader
time	pelvis_tilt	pelvis_list	pelvis_rotation	pelvis_tx	pelvis_ty	pelvis_tz	hip_flexion_r	hip_adduction_r	hip_rotation_r	knee_angle_r	knee_angle_r_beta	ankle_angle_r	subtalar_angle_r	mtp_angle_r	hip_flexion_l	hip_adduction_l	hip_rotation_l	knee_angle_l	knee_angle_l_beta	ankle_angle_l	subtalar_angle_l	mtp_angle_l	lumbar_extension	lumbar_bending	lumbar_rotation	arm_flex_r	arm_add_r	arm_rot_r	elbow_flex_r	pro_sup_r	wrist_flex_r	wrist_dev_r	arm_flex_l	arm_add_l	arm_rot_l	elbow_flex_l	pro_sup_l	wrist_flex_l	wrist_dev_l
     54.65900000	     -3.93088295	     -5.32603222	      6.49994939	      1.11065831	      0.93132285	      0.51964514	      8.10111548	      3.50550175	    -18.78415321	     14.59295292	     14.59295292	     11.66214951	     -4.75765044	     -2.99736147	     36.81737087	    -11.98777540	      0.40656481	     47.95518089	     47.95518089	      7.83413861	    -18.59807384	     17.12727455	    -10.23361378	      4.70907309	      1.98852952	     26.31312030	    -14.97562988	     -3.63544744	     74.83057053	     44.77990609	      0.00000000	      0.00000000	      2.62050105	     -5.78098506	     -4.40677697	     23.68927973	     46.36193751	      0.00000000	      0.00000000
     54.67050000	     -4.11759765	     -5.26308940	      6.70862731	      1.10926473	      0.93088392	      0.51917342	      7.43456224	      3.49352046	    -19.19962779	     14.03480192	     14.03480192	     11.96559434	     -4.00917950	     -3.39024715	     37.13781805	    -11.21300871	      0.58853810	     43.94234128	     43.94234128	      6.79520414	    -18.04787571	     13.62742470	    -10.25284698	      4.70230728	      2.53385361	     28.37995727	    -15.78748917	     -3.59914142	     78.95858648	     44.69452412	      0.00000000	      0.00000000	      1.79279637	     -5.50698876	     -3.02125255	     22.37577958	     46.06645745	      0.00000000	      0.00000000
     54.68200000	     -4.33411636	     -5.11142503	      6.87768668	      1.10794081	      0.93046587	      0.51859585	      6.79631764	      3.43695988	    -19.21387609	     13.47460445	     13.47460445	     12.26445674	     -3.85394017	     -3.43689971	     37.41929481	    -10.32396231	      0.93697038	     40.05019070	     40.05019070	      7.07160994	    -16.80726121	     13.52457654	    -10.16741548	      4.54833579	      2.61994018	     31.24076720	    -15.75107089	     -3.94021553	     80.78699540	     44.66444838	      0.00000000	      0.00000000	      0.50346746	     -5.31666063	     -2.80335109	     21.84797868	     45.99528875	      0.00000000	      0.00000000
     54.69350000	     -4.46765070	     -5.13016187	      7.09398392	      1.10691769	      0.92991502	      0.51787633	      5.94400374	      3.57825035	    -19.53514966	     12.67468025	     12.67468025	     12.43516313	     -3.25945190	     -3.85854771	     37.35713787	     -9.67655113	      1.31486397	     35.75398902	     35.75398902	      5.74371194	    -15.55496754	      9.01504645	    -10.17785391	      4.65004941	      2.73884273	     33.70172668	    -15.84235851	     -4.25076474	     83.87009805	     44.70494825	      0.00000000	      0.00000000	     -1.26512854	     -5.54707663	      0.90441407	     22.51817953	     45.20278644	      0.00000000	      0.00000000
     54.70500000	     -4.67830096	     -5.01844509	      7.24006619	      1.10595360	      0.92927285	      0.51701221	      5.23539774	      3.55461059	    -19.63589336	     12.04194211	     12.04194211	     12.74224259	     -2.87760494	     -3.93948928	     37.40578878	     -8.95127367	      1.65350326	     31.91745236	     31.91745236	      6.28255541	    -13.40844044	      9.20282144	    -10.05082238	      4.56081916	      2.90886224	     36.41453704	    -15.94632314	     -4.40395348	     85.67121474	     44.66900766	      0.00000000	      0.00000000	     -2.52154336	     -5.37120561	      1.07283165	     22.26385947	     45.14744852	      0.00000000	      0.00000000
     54.71650000	     -4.80216763	     -5.06913296	      7.43518025	      1.10528274	      0.92853144	      0.51597139	      4.27833143	      3.72379853	    -20.14259538	     11.12151213	     11.12151213	     12.96422981	     -1.87203826	     -4.25555006	     37.34758814	     -8.46752528	      1.90825389	     28.25958582	     28.25958582	      6.60761363	    -11.02463324	      8.66865159	    -10.07300699	      4.71789937	      2.99732731	     38.76329593	    -16.20274282	     -4.27683964	     88.80002215	     44.63898884	      0.00000000	      0.00000000	     -4.46919494	     -5.53699665	      2.90331703	     23.82671807	     44.77564030	      0.00000000	      0.00000000
     54.72800000	     -4.93630002	     -5.05095204	      7.57862817	      1.10479525	      0.92774893	      0.51488576	      3.35289969	      3.85048479	    -20.30297865	     10.26254554	     10.26254554	     13.20731709	     -1.33197380	     -4.30246519	     37.19023714	     -7.96865945	      2.01752100	     24.82769894	     24.82769894	      7.04748847	     -8.78588059	      8.96609458	     -9.98559993	      4.76281736	      3.06311579	     41.33689386	    -16.16751467	     -4.41227729	     90.54040332	     44.60830539	      0.00000000	      0.00000000	     -5.77576626	     -5.40820753	      3.23649643	     23.66570284	     44.69716687	      0.00000000	      0.00000000
     54.73950000	     -5.06801766	     -5.06512611	      7.73706524	      1.10451473	      0.92682972	      0.51358794	      2.37745602	      4.00384733	    -20.57116108	      9.33093523	      9.33093523	     13.41716910	     -0.60998873	     -4.35963117	     37.02307577	     -7.53720710	      1.94670507	     21.78463693	     21.78463693	      7.43201154	     -6.70964981	      9.36572693	     -9.87780538	      4.87445827	      3.12022661	     43.77176192	    -16.15628437	     -4.44961391	     92.48759368	     44.56894996	      0.00000000	      0.00000000	     -7.11196382	     -5.29858123	      3.59228151	     23.89706371	     44.60968280	      0.00000000	      0.00000000
